<svg width="447" height="207" viewBox="0 0 447 207" xmlns="http://www.w3.org/2000/svg" lang="en" xml:lang="en"><rect x="2" y="2" stroke-width="4" rx="6" width="443" height="203" stroke="rgba(65,132,228,0.4)" fill="#22272e"/><g font-weight="600" font-size="110pt" font-family="Verdana,Geneva,DejaVu Sans,sans-serif" text-rendering="geometricPrecision"><text x="664" y="301" lengthAdjust="spacingAndGlyphs" textLength="2298" transform="scale(0.123)" fill="#539bf5">ArsenTech's GitHub Activity</text><svg x="15" y="15" width="25" height="25" viewBox="0 0 16 16"><path fill="#ffffff" fill-rule="evenodd" d="M8 0C3.58 0 0 3.58 0 8c0 3.54 2.29 6.53 5.47 7.59.4.07.55-.17.55-.38 0-.19-.01-.82-.01-1.49-2.01.37-2.53-.49-2.69-.94-.09-.23-.48-.94-.82-1.13-.28-.15-.68-.52-.01-.53.63-.01 1.08.58 1.23.82.72 1.21 1.87.87 2.33.66.07-.52.28-.87.51-1.07-1.78-.2-3.64-.89-3.64-3.95 0-.87.31-1.59.82-2.15-.08-.2-.36-1.02.08-2.12 0 0 .67-.21 2.2.82.64-.18 1.32-.27 2-.27.68 0 1.36.09 2 .27 1.53-1.04 2.2-.82 2.2-.82.44 1.1.16 1.92.08 2.12.51.56.82 1.27.82 2.15 0 3.07-1.87 3.75-3.65 3.95.29.25.54.73.54 1.48 0 1.07-.01 1.93-.01 2.2 0 .21.15.46.55.38A8.013 8.013 0 0016 8c0-4.42-3.58-8-8-8z"/></svg><svg x="407" y="15" width="25" height="25" viewBox="0 0 16 16"><path fill="#ffffff" fill-rule="evenodd" d="M8 0C3.58 0 0 3.58 0 8c0 3.54 2.29 6.53 5.47 7.59.4.07.55-.17.55-.38 0-.19-.01-.82-.01-1.49-2.01.37-2.53-.49-2.69-.94-.09-.23-.48-.94-.82-1.13-.28-.15-.68-.52-.01-.53.63-.01 1.08.58 1.23.82.72 1.21 1.87.87 2.33.66.07-.52.28-.87.51-1.07-1.78-.2-3.64-.89-3.64-3.95 0-.87.31-1.59.82-2.15-.08-.2-.36-1.02.08-2.12 0 0 .67-.21 2.2.82.64-.18 1.32-.27 2-.27.68 0 1.36.09 2 .27 1.53-1.04 2.2-.82 2.2-.82.44 1.1.16 1.92.08 2.12.51.56.82 1.27.82 2.15 0 3.07-1.87 3.75-3.65 3.95.29.25.54.73.54 1.48 0 1.07-.01 1.93-.01 2.2 0 .21.15.46.55.38A8.013 8.013 0 0016 8c0-4.42-3.58-8-8-8z"/></svg><g transform="translate(0, 60)" fill="#adbac7"><g transform="translate(15, 0)"><g transform="scale(0.095)"><text x="0" y="132" textLength="1112" lengthAdjust="spacingAndGlyphs">Contributions</text><text x="2347" y="132" textLength="774" lengthAdjust="spacingAndGlyphs">Past Year</text><text x="3516" y="132" textLength="414" lengthAdjust="spacingAndGlyphs">Total</text></g></g><g transform="translate(15, 21)"><path fill="#316dca" fill-rule="evenodd" d="M10.5 7.75a2.5 2.5 0 11-5 0 2.5 2.5 0 015 0zm1.43.75a4.002 4.002 0 01-7.86 0H.75a.75.75 0 110-1.5h3.32a4.001 4.001 0 017.86 0h3.32a.75.75 0 110 1.5h-3.32z"/><g transform="scale(0.095)"><text lengthAdjust="spacingAndGlyphs" textLength="734" x="263" y="132">Commits</text><text lengthAdjust="spacingAndGlyphs" textLength="315" x="2347" y="132">354</text><text lengthAdjust="spacingAndGlyphs" textLength="420" x="3516" y="132">2005</text></g></g><g transform="translate(15, 42)"><path fill="#316dca" d="M8 9.5a1.5 1.5 0 100-3 1.5 1.5 0 000 3z"/><path fill="#316dca" fill-rule="evenodd" d="M8 0a8 8 0 100 16A8 8 0 008 0zM1.5 8a6.5 6.5 0 1113 0 6.5 6.5 0 01-13 0z"/><g transform="scale(0.095)"><text lengthAdjust="spacingAndGlyphs" textLength="512" x="263" y="132">Issues</text><text lengthAdjust="spacingAndGlyphs" textLength="105" x="2347" y="132">0</text><text lengthAdjust="spacingAndGlyphs" textLength="105" x="3516" y="132">1</text></g></g><g transform="translate(15, 63)"><path fill="#316dca" fill-rule="evenodd" d="M7.177 3.073L9.573.677A.25.25 0 0110 .854v4.792a.25.25 0 01-.427.177L7.177 3.427a.25.25 0 010-.354zM3.75 2.5a.75.75 0 100 1.5.75.75 0 000-1.5zm-2.25.75a2.25 2.25 0 113 2.122v5.256a2.251 2.251 0 11-1.5 0V5.372A2.25 2.25 0 011.5 3.25zM11 2.5h-1V4h1a1 1 0 011 1v5.628a2.251 2.251 0 101.5 0V5A2.5 2.5 0 0011 2.5zm1 10.25a.75.75 0 111.5 0 .75.75 0 01-1.5 0zM3.75 12a.75.75 0 100 1.5.75.75 0 000-1.5z"/><g transform="scale(0.095)"><text lengthAdjust="spacingAndGlyphs" textLength="1113" x="263" y="132">Pull Requests</text><text lengthAdjust="spacingAndGlyphs" textLength="105" x="2347" y="132">7</text><text lengthAdjust="spacingAndGlyphs" textLength="210" x="3516" y="132">14</text></g></g><g transform="translate(15, 84)"><path fill="#316dca" fill-rule="evenodd" d="M1.5 2.75a.25.25 0 01.25-.25h8.5a.25.25 0 01.25.25v5.5a.25.25 0 01-.25.25h-3.5a.75.75 0 00-.53.22L3.5 11.44V9.25a.75.75 0 00-.75-.75h-1a.25.25 0 01-.25-.25v-5.5zM1.75 1A1.75 1.75 0 000 2.75v5.5C0 9.216.784 10 1.75 10H2v1.543a1.457 1.457 0 002.487 1.03L7.061 10h3.189A1.75 1.75 0 0012 8.25v-5.5A1.75 1.75 0 0010.25 1h-8.5zM14.5 4.75a.25.25 0 00-.25-.25h-.5a.75.75 0 110-1.5h.5c.966 0 1.75.784 1.75 1.75v5.5A1.75 1.75 0 0114.25 12H14v1.543a1.457 1.457 0 01-2.487 1.03L9.22 12.28a.75.75 0 111.06-1.06l2.22 2.22v-2.19a.75.75 0 01.75-.75h1a.25.25 0 00.25-.25v-5.5z"/><g transform="scale(0.095)"><text lengthAdjust="spacingAndGlyphs" textLength="1762" x="263" y="132">Pull Request Reviews</text><text lengthAdjust="spacingAndGlyphs" textLength="105" x="2347" y="132">0</text><text lengthAdjust="spacingAndGlyphs" textLength="105" x="3516" y="132">1</text></g></g><g transform="translate(15, 105)"><path fill="#316dca" fill-rule="evenodd" d="M1 2.5A2.5 2.5 0 013.5 0h8.75a.75.75 0 01.75.75v3.5a.75.75 0 01-1.5 0V1.5h-8a1 1 0 00-1 1v6.708A2.492 2.492 0 013.5 9h3.25a.75.75 0 010 1.5H3.5a1 1 0 100 2h5.75a.75.75 0 010 1.5H3.5A2.5 2.5 0 011 11.5v-9zm13.23 7.79a.75.75 0 001.06-1.06l-2.505-2.505a.75.75 0 00-1.06 0L9.22 9.229a.75.75 0 001.06 1.061l1.225-1.224v6.184a.75.75 0 001.5 0V9.066l1.224 1.224z"/><g transform="scale(0.095)"><text lengthAdjust="spacingAndGlyphs" textLength="1234" x="263" y="132">Contributed To</text><text lengthAdjust="spacingAndGlyphs" textLength="105" x="2347" y="132">1</text></g></g></g></g></svg>